<svg width="32" height="32" viewBox="0 0 32 32" fill="none" xmlns="http://www.w3.org/2000/svg">
<g clip-path="url(#clip0_20_3)">
<rect width="15.6538" height="1.84999" transform="matrix(0.724825 -0.688933 0.724825 0.688933 0 10.7844)" fill="#FF947C"/>
<rect width="15.6538" height="1.84999" transform="matrix(0.724825 -0.688933 0.724825 0.688933 1.31293 12.7255)" fill="#DA3636"/>
<path d="M10.068 28L7.676 7.2H9.756L10.978 18.614L11.524 26.206H12.018L12.59 18.614L13.812 7.2H15.892L13.5 28H10.068Z" fill="#FF947C"/>
<path d="M17.8983 28V7.2H21.6163L22.7863 15.65L23.6963 26.128H24.1903L25.0743 15.65L26.2703 7.2H29.9623V28H27.9603V21.812L28.2723 8.994H27.7263L26.2963 22.02L25.3603 27.922H22.5003L21.5643 22.02L20.1603 8.994H19.5883L19.9003 21.916V28H17.8983Z" fill="#DA3636"/>
</g>
<defs>
<clipPath id="clip0_20_3">
<rect width="32" height="32" fill="white"/>
</clipPath>
</defs>
</svg>
