<svg width="30" height="26" viewBox="0 0 30 26" fill="none" xmlns="http://www.w3.org/2000/svg">
<g clip-path="url(#clip0_1_259)">
<path d="M10.8369 8.14153H16.5975C16.8315 8.14153 17.0205 8.30977 17.0205 8.51806V10.0883C17.4886 9.63162 18.0827 9.21503 18.8117 8.87856C19.7748 8.42994 20.9719 8.14153 22.3671 8.14153C25.5714 8.14153 27.4886 9.0468 28.6047 10.5369C29.7028 12.0029 29.9998 14.0057 29.9998 16.2649V25.1894C29.9998 25.3977 29.8108 25.5659 29.5768 25.5659H23.5732C23.3392 25.5659 23.1502 25.3977 23.1502 25.1894V17.2743C23.1502 16.369 23.1412 15.3276 22.7721 14.5505C22.4391 13.8455 21.773 13.3328 20.4499 13.3328C19.0638 13.3328 18.2807 13.7734 17.8396 14.4383C17.3716 15.1433 17.2636 16.1287 17.2636 17.1301V25.1814C17.2636 25.3896 17.0746 25.5579 16.8405 25.5579H10.8369C10.6029 25.5579 10.4139 25.3896 10.4139 25.1814V8.50204C10.4139 8.29375 10.6029 8.12551 10.8369 8.12551V8.14153ZM16.1745 8.89459H11.26V24.8209H16.4085V17.1461C16.4085 16.0246 16.5435 14.919 17.1016 14.0698C17.6866 13.1806 18.7037 12.5877 20.4409 12.5877C22.1961 12.5877 23.0872 13.2927 23.5462 14.2701C23.9782 15.1834 23.9872 16.3049 23.9872 17.2823V24.8209H29.1448V16.2729C29.1448 14.1499 28.8747 12.2753 27.8936 10.9615C26.9305 9.67167 25.2384 8.89459 22.3581 8.89459C21.107 8.89459 20.0449 9.15094 19.1898 9.5515C18.1637 10.0242 17.4436 10.6891 17.0385 11.33C16.9665 11.4421 16.8315 11.5223 16.6695 11.5223H16.5885C16.3545 11.5223 16.1655 11.354 16.1655 11.1457V8.89459H16.1745ZM7.10156 3.87957C7.10156 4.75279 6.70552 5.53789 6.05745 6.1147C5.41839 6.68349 4.5273 7.044 3.5462 7.044C2.5651 7.044 1.68301 6.69151 1.03495 6.1147C0.395885 5.5459 -0.00915527 4.75279 -0.00915527 3.87957C-0.00915527 3.00635 0.386884 2.22125 1.03495 1.64445C1.67401 1.07565 2.5651 0.715149 3.5462 0.715149C4.5273 0.715149 5.40939 1.06764 6.05745 1.64445C6.69652 2.21324 7.10156 3.00635 7.10156 3.87957ZM5.46339 5.57795C5.94944 5.14534 6.25547 4.5445 6.25547 3.87957C6.25547 3.21464 5.94944 2.6138 5.46339 2.1812C4.97734 1.74859 4.30228 1.47621 3.5552 1.47621C2.80813 1.47621 2.13306 1.74859 1.64701 2.1812C1.16096 2.6138 0.854931 3.21464 0.854931 3.87957C0.854931 4.5445 1.16096 5.14534 1.64701 5.57795C2.13306 6.01055 2.80813 6.28293 3.5552 6.28293C4.30228 6.28293 4.97734 6.01055 5.46339 5.57795ZM0.431889 8.13352H6.67851C6.91254 8.13352 7.10156 8.30176 7.10156 8.51005V25.1894C7.10156 25.3977 6.91254 25.5659 6.67851 25.5659H0.431889C0.197865 25.5659 0.00884653 25.3977 0.00884653 25.1894V8.51005C0.00884653 8.30176 0.197865 8.13352 0.431889 8.13352ZM6.25547 8.88657H0.854931V24.8128H6.25547V8.88657Z" fill="#A41C07"/>
<g clip-path="url(#clip1_1_259)">
<path d="M15.2025 13.0369C15.1926 13.0369 15.1845 13.0297 15.1845 13.0208C15.1845 13.012 15.1926 13.0048 15.2025 13.0048C15.2124 13.0048 15.2205 13.012 15.2205 13.0208C15.2205 13.0297 15.2124 13.0369 15.2025 13.0369ZM15.2565 13.0224C15.2565 12.9934 15.2327 12.9728 15.2025 12.9728C15.1723 12.9728 15.1485 12.9934 15.1485 13.0224C15.1485 13.0412 15.166 13.066 15.2025 13.0957C15.239 13.066 15.2565 13.0412 15.2565 13.0224ZM15.2025 12.9568C15.2403 12.9568 15.2745 12.9826 15.2745 13.0224C15.2745 13.049 15.2505 13.0805 15.2025 13.117C15.1545 13.0805 15.1305 13.049 15.1305 13.0224C15.1305 12.9826 15.1647 12.9568 15.2025 12.9568Z" fill="#750000"/>
</g>
<g clip-path="url(#clip2_1_259)">
<path d="M14.2669 12.8759C14.2501 12.8609 14.2277 12.8526 14.2038 12.8526C14.1547 12.8526 14.1146 12.8882 14.1146 12.932C14.1146 12.946 14.1188 12.9596 14.1265 12.9716L14.1139 13.0128L14.1611 13.0018C14.1742 13.0081 14.1889 13.0115 14.2038 13.0115C14.253 13.0115 14.293 12.9758 14.293 12.9321C14.293 12.9108 14.2837 12.8909 14.2669 12.8759ZM14.2038 12.998C14.1905 12.998 14.1774 12.9948 14.166 12.9888L14.1633 12.9873L14.1352 12.9939L14.1427 12.9696L14.1409 12.9671C14.1335 12.9566 14.1296 12.9444 14.1296 12.932C14.1296 12.8956 14.1629 12.866 14.2037 12.866C14.2235 12.866 14.2422 12.8729 14.2561 12.8854C14.2701 12.8979 14.2778 12.9144 14.2778 12.9321C14.278 12.9684 14.2447 12.998 14.2038 12.998ZM14.2445 12.9487C14.2422 12.9477 14.2313 12.9429 14.2293 12.9422C14.2272 12.9415 14.2258 12.9412 14.2242 12.9431C14.2227 12.9451 14.2185 12.9496 14.2172 12.9509C14.216 12.9523 14.2146 12.9524 14.2124 12.9514C14.2101 12.9504 14.2029 12.9483 14.1944 12.9415C14.1878 12.9362 14.1834 12.9297 14.182 12.9277C14.1808 12.9257 14.1818 12.9247 14.183 12.9237C14.184 12.9228 14.1853 12.9213 14.1863 12.9202C14.1874 12.9191 14.1879 12.9182 14.1886 12.9169C14.1893 12.9156 14.189 12.9144 14.1884 12.9135C14.1879 12.9125 14.1834 12.9027 14.1816 12.8987C14.1798 12.8949 14.1779 12.8954 14.1765 12.8953C14.1752 12.8953 14.1737 12.8953 14.1722 12.8953C14.1707 12.8953 14.1683 12.8958 14.1663 12.8978C14.1643 12.8998 14.1585 12.9046 14.1585 12.9144C14.1585 12.9241 14.1665 12.9336 14.1676 12.9349C14.1687 12.9362 14.1834 12.9563 14.2057 12.9648C14.211 12.9669 14.2152 12.9681 14.2184 12.969C14.2237 12.9705 14.2286 12.9703 14.2324 12.9698C14.2368 12.9692 14.2457 12.965 14.2475 12.9603C14.2494 12.9557 14.2494 12.9518 14.2487 12.9509C14.2481 12.95 14.2467 12.9496 14.2445 12.9487Z" fill="#F2E8E4"/>
</g>
</g>
<defs>
<clipPath id="clip0_1_259">
<rect width="30" height="24.8507" fill="white" transform="translate(0 0.731354)"/>
</clipPath>
<clipPath id="clip1_1_259">
<rect width="0.216017" height="0.192269" fill="white" transform="translate(15.0945 12.9404)"/>
</clipPath>
<clipPath id="clip2_1_259">
<rect width="0.216019" height="0.192267" fill="white" transform="translate(14.0955 12.8363)"/>
</clipPath>
</defs>
</svg>
