<svg width="277" height="40" viewBox="0 0 277 40" fill="none" xmlns="http://www.w3.org/2000/svg">
<path d="M0.104004 0.254333H6.344L11.48 27.7583L16.328 0.254333H22.712L14.888 39.1343H7.928L0.104004 0.254333Z" fill="#A41C07"/>
<path d="M27.158 1.55033H33.686V6.97434H27.158V1.55033ZM27.158 11.3903H33.686V39.1343H27.158V11.3903Z" fill="#A41C07"/>
<path d="M47.9443 39.5663C44.8403 39.5663 42.5843 38.7023 41.1763 36.9743C39.7683 35.2143 39.0643 32.7023 39.0643 29.4383V21.0863C39.0643 17.7903 39.7683 15.2783 41.1763 13.5503C42.5843 11.8223 44.8403 10.9583 47.9443 10.9583C50.8883 10.9583 53.0323 11.6623 54.3763 13.0703C55.7523 14.4783 56.4403 16.6223 56.4403 19.5023V21.8063H50.2963V19.3583C50.2963 17.9183 50.1203 16.9263 49.7683 16.3823C49.4483 15.8383 48.8563 15.5663 47.9923 15.5663C47.0643 15.5663 46.4243 15.9023 46.0723 16.5743C45.7523 17.2463 45.5923 18.4783 45.5923 20.2703V30.4463C45.5923 32.1743 45.7683 33.3583 46.1203 33.9983C46.5043 34.6383 47.1283 34.9583 47.9923 34.9583C48.8883 34.9583 49.4963 34.6703 49.8163 34.0943C50.1363 33.4863 50.2963 32.5263 50.2963 31.2143V28.2383H56.4403V30.8783C56.4403 33.7263 55.7523 35.8863 54.3763 37.3583C53.0003 38.8303 50.8563 39.5663 47.9443 39.5663Z" fill="#A41C07"/>
<path d="M69.5158 39.4703C66.9878 39.4703 65.1958 38.8623 64.1398 37.6463C63.1158 36.4303 62.6038 34.6223 62.6038 32.2223V15.6623H59.8198V11.3903H62.6038V3.08633H69.1798V11.3903H73.3558V15.6623H69.1798V31.6463C69.1798 32.5743 69.3718 33.2463 69.7558 33.6623C70.1718 34.0783 70.8118 34.2863 71.6758 34.2863C72.4758 34.2863 73.1478 34.2223 73.6918 34.0943V39.1343C72.4118 39.3583 71.0198 39.4703 69.5158 39.4703Z" fill="#A41C07"/>
<path d="M86.5573 39.5663C83.5813 39.5663 81.3573 38.7503 79.8853 37.1183C78.4133 35.4543 77.6773 33.0543 77.6773 29.9183V20.6063C77.6773 17.4703 78.4133 15.0863 79.8853 13.4543C81.3573 11.7903 83.5813 10.9583 86.5573 10.9583C89.5333 10.9583 91.7573 11.7903 93.2293 13.4543C94.7333 15.0863 95.4853 17.4703 95.4853 20.6063V29.9183C95.4853 33.0543 94.7333 35.4543 93.2293 37.1183C91.7573 38.7503 89.5333 39.5663 86.5573 39.5663ZM86.6053 35.0543C87.5973 35.0543 88.2532 34.6703 88.5732 33.9023C88.8932 33.1023 89.0533 31.9343 89.0533 30.3983V20.1743C89.0533 18.6383 88.8932 17.4703 88.5732 16.6703C88.2532 15.8703 87.5973 15.4703 86.6053 15.4703C85.5813 15.4703 84.9092 15.8703 84.5892 16.6703C84.2692 17.4703 84.1093 18.6383 84.1093 20.1743V30.3983C84.1093 31.9343 84.2692 33.1023 84.5892 33.9023C84.9092 34.6703 85.5813 35.0543 86.6053 35.0543Z" fill="#A41C07"/>
<path d="M100.865 11.3903H107.393V15.6623C108.321 14.0303 109.265 12.8623 110.225 12.1583C111.185 11.4223 112.257 11.0543 113.441 11.0543C113.857 11.0543 114.193 11.0863 114.449 11.1503V17.9183C113.425 17.5343 112.529 17.3423 111.761 17.3423C110.033 17.3423 108.577 18.2383 107.393 20.0303V39.1343H100.865V11.3903Z" fill="#A41C07"/>
<path d="M131.763 0.254333H139.107L144.627 27.1823L150.339 0.254333H157.491L158.211 39.1343H152.931L152.355 12.1103L146.835 39.1343H142.563L136.947 12.0143L136.419 39.1343H131.091L131.763 0.254333Z" fill="#A41C07"/>
<path d="M172.64 39.5663C169.568 39.5663 167.312 38.7183 165.872 37.0223C164.432 35.2943 163.712 32.7503 163.712 29.3903V21.1343C163.712 17.7423 164.432 15.1983 165.872 13.5023C167.344 11.8063 169.6 10.9583 172.64 10.9583C175.776 10.9583 177.984 11.8383 179.264 13.5983C180.576 15.3583 181.232 18.0143 181.232 21.5663V25.5503H170.192V31.0223C170.192 32.3663 170.384 33.3423 170.768 33.9503C171.184 34.5583 171.824 34.8623 172.688 34.8623C173.52 34.8623 174.112 34.5743 174.464 33.9983C174.848 33.3903 175.04 32.4783 175.04 31.2623V28.9103H181.184V30.8303C181.184 33.6783 180.464 35.8543 179.024 37.3583C177.584 38.8303 175.456 39.5663 172.64 39.5663ZM175.04 22.3343V19.6943C175.04 18.2543 174.864 17.2303 174.512 16.6223C174.16 15.9823 173.536 15.6623 172.64 15.6623C171.712 15.6623 171.072 15.9983 170.72 16.6703C170.368 17.3423 170.192 18.5903 170.192 20.4143V22.3343H175.04Z" fill="#A41C07"/>
<path d="M193.918 39.5663C191.582 39.5663 189.662 38.9423 188.158 37.6943C186.654 36.4463 185.582 34.6223 184.942 32.2223L189.79 30.3503C190.526 33.4543 191.87 35.0063 193.822 35.0063C194.558 35.0063 195.118 34.8143 195.502 34.4303C195.918 34.0463 196.126 33.5183 196.126 32.8463C196.126 32.1103 195.902 31.4383 195.454 30.8303C195.006 30.1903 194.206 29.3903 193.054 28.4303L189.742 25.5503C188.334 24.3983 187.294 23.2783 186.622 22.1903C185.95 21.1023 185.614 19.7743 185.614 18.2063C185.614 16.0303 186.35 14.2863 187.822 12.9743C189.326 11.6303 191.214 10.9583 193.486 10.9583C195.662 10.9583 197.438 11.6143 198.814 12.9263C200.19 14.2063 201.086 15.9503 201.502 18.1583L197.23 19.9823C196.974 18.7023 196.542 17.6623 195.934 16.8623C195.358 16.0303 194.606 15.6143 193.678 15.6143C193.006 15.6143 192.462 15.8223 192.046 16.2383C191.662 16.6543 191.47 17.1823 191.47 17.8223C191.47 18.3343 191.694 18.8783 192.142 19.4543C192.59 20.0303 193.262 20.7023 194.158 21.4703L197.518 24.5423C198.958 25.7903 200.062 26.9903 200.83 28.1423C201.63 29.2623 202.03 30.6223 202.03 32.2223C202.03 34.5583 201.262 36.3663 199.726 37.6463C198.222 38.9263 196.286 39.5663 193.918 39.5663Z" fill="#A41C07"/>
<path d="M213.857 39.5663C211.521 39.5663 209.601 38.9423 208.097 37.6943C206.593 36.4463 205.521 34.6223 204.881 32.2223L209.729 30.3503C210.465 33.4543 211.809 35.0063 213.761 35.0063C214.497 35.0063 215.057 34.8143 215.441 34.4303C215.857 34.0463 216.065 33.5183 216.065 32.8463C216.065 32.1103 215.841 31.4383 215.393 30.8303C214.945 30.1903 214.145 29.3903 212.993 28.4303L209.681 25.5503C208.273 24.3983 207.233 23.2783 206.561 22.1903C205.889 21.1023 205.553 19.7743 205.553 18.2063C205.553 16.0303 206.289 14.2863 207.761 12.9743C209.265 11.6303 211.153 10.9583 213.425 10.9583C215.601 10.9583 217.377 11.6143 218.753 12.9263C220.129 14.2063 221.025 15.9503 221.441 18.1583L217.169 19.9823C216.913 18.7023 216.481 17.6623 215.873 16.8623C215.297 16.0303 214.545 15.6143 213.617 15.6143C212.945 15.6143 212.401 15.8223 211.985 16.2383C211.601 16.6543 211.409 17.1823 211.409 17.8223C211.409 18.3343 211.633 18.8783 212.081 19.4543C212.529 20.0303 213.201 20.7023 214.097 21.4703L217.457 24.5423C218.897 25.7903 220.001 26.9903 220.769 28.1423C221.569 29.2623 221.969 30.6223 221.969 32.2223C221.969 34.5583 221.201 36.3663 219.665 37.6463C218.161 38.9263 216.225 39.5663 213.857 39.5663Z" fill="#A41C07"/>
<path d="M226.452 1.55033H232.98V6.97434H226.452V1.55033ZM226.452 11.3903H232.98V39.1343H226.452V11.3903Z" fill="#A41C07"/>
<path d="M244.262 39.5663C243.078 39.5663 242.022 39.2463 241.094 38.6063C240.198 37.9663 239.494 37.1503 238.982 36.1583C238.502 35.1343 238.262 34.0783 238.262 32.9903C238.262 30.8463 238.758 29.0863 239.75 27.7103C240.774 26.3023 242.022 25.2143 243.494 24.4463C244.998 23.6783 246.982 22.8303 249.446 21.9023V19.5023C249.446 18.2223 249.286 17.2943 248.966 16.7183C248.678 16.1103 248.102 15.8063 247.238 15.8063C245.766 15.8063 244.998 16.8303 244.934 18.8783L244.838 20.5583L238.646 20.3183C238.742 17.1183 239.526 14.7663 240.998 13.2623C242.502 11.7263 244.758 10.9583 247.766 10.9583C250.486 10.9583 252.502 11.7103 253.814 13.2143C255.126 14.6863 255.782 16.7823 255.782 19.5023V32.3183C255.782 34.3023 255.942 36.5743 256.262 39.1343H250.406C250.086 37.4063 249.862 36.0783 249.734 35.1503C249.35 36.3983 248.694 37.4543 247.766 38.3183C246.87 39.1503 245.702 39.5663 244.262 39.5663ZM246.662 34.7183C247.206 34.7183 247.718 34.5263 248.198 34.1423C248.71 33.7583 249.126 33.3423 249.446 32.8943V25.1183C247.75 26.1103 246.486 27.0703 245.654 27.9983C244.822 28.8943 244.406 30.0303 244.406 31.4063C244.406 32.4303 244.598 33.2463 244.982 33.8543C245.398 34.4303 245.958 34.7183 246.662 34.7183Z" fill="#A41C07"/>
<path d="M268.845 39.5663C266.509 39.5663 264.589 38.9423 263.085 37.6943C261.581 36.4463 260.509 34.6223 259.869 32.2223L264.717 30.3503C265.453 33.4543 266.797 35.0063 268.749 35.0063C269.485 35.0063 270.045 34.8143 270.429 34.4303C270.845 34.0463 271.053 33.5183 271.053 32.8463C271.053 32.1103 270.829 31.4383 270.381 30.8303C269.933 30.1903 269.133 29.3903 267.981 28.4303L264.669 25.5503C263.261 24.3983 262.221 23.2783 261.549 22.1903C260.877 21.1023 260.541 19.7743 260.541 18.2063C260.541 16.0303 261.277 14.2863 262.749 12.9743C264.253 11.6303 266.141 10.9583 268.413 10.9583C270.589 10.9583 272.365 11.6143 273.741 12.9263C275.117 14.2063 276.013 15.9503 276.429 18.1583L272.157 19.9823C271.901 18.7023 271.469 17.6623 270.861 16.8623C270.285 16.0303 269.533 15.6143 268.605 15.6143C267.933 15.6143 267.389 15.8223 266.973 16.2383C266.589 16.6543 266.397 17.1823 266.397 17.8223C266.397 18.3343 266.621 18.8783 267.069 19.4543C267.517 20.0303 268.189 20.7023 269.085 21.4703L272.445 24.5423C273.885 25.7903 274.989 26.9903 275.757 28.1423C276.557 29.2623 276.957 30.6223 276.957 32.2223C276.957 34.5583 276.189 36.3663 274.653 37.6463C273.149 38.9263 271.213 39.5663 268.845 39.5663Z" fill="#A41C07"/>
</svg>
