<svg width="30" height="26" viewBox="0 0 30 26" fill="none" xmlns="http://www.w3.org/2000/svg">
<g clip-path="url(#clip0_1_273)">
<path d="M23.8125 5.8154C21.475 3.86876 18.3625 2.80225 15.05 2.80225C8.225 2.80225 2.6625 7.40999 2.6625 13.0635C2.6625 14.8756 3.2375 16.6358 4.3125 18.189L2.5625 23.5112L9.125 22.0823C10.9375 22.9003 12.975 23.3352 15.05 23.3352C21.875 23.3352 27.4375 18.7274 27.4375 13.0739C27.4375 10.33 26.15 7.75169 23.8125 5.8154ZM15.05 21.5956C13.2 21.5956 11.3875 21.1814 9.8 20.4049L9.425 20.2185L5.525 21.0675L6.5625 17.9198L6.3125 17.5988C5.2875 16.2424 4.7375 14.6685 4.7375 13.0635C4.7375 8.3626 9.3625 4.53144 15.0375 4.53144C17.7875 4.53144 20.375 5.42193 22.3125 7.03723C24.2625 8.65253 25.325 10.7959 25.325 13.0739C25.35 17.7748 20.725 21.5956 15.05 21.5956ZM20.7 15.2173C20.3875 15.093 18.8625 14.4717 18.5875 14.3786C18.3 14.2957 18.1 14.2543 17.8875 14.5028C17.675 14.7617 17.0875 15.3415 16.9125 15.5072C16.7375 15.6832 16.55 15.7039 16.2375 15.5693C15.925 15.4451 14.925 15.1655 13.75 14.2957C12.825 13.6123 12.2125 12.7736 12.025 12.5147C11.85 12.2559 12 12.1213 12.1625 11.9867C12.3 11.8728 12.475 11.6864 12.625 11.5414C12.775 11.3965 12.8375 11.2826 12.9375 11.1169C13.0375 10.9409 12.9875 10.7959 12.9125 10.6716C12.8375 10.5474 12.2125 9.28415 11.9625 8.76643C11.7125 8.26941 11.45 8.33154 11.2625 8.32118C11.075 8.32118 10.875 8.32118 10.6625 8.32118C10.45 8.32118 10.125 8.38331 9.8375 8.64217C9.5625 8.90103 8.7625 9.5223 8.7625 10.7855C8.7625 12.0488 9.875 13.2706 10.025 13.4363C10.175 13.6123 12.2125 16.2009 15.3125 17.3089C16.05 17.5781 16.625 17.7334 17.075 17.8473C17.8125 18.044 18.4875 18.013 19.025 17.9508C19.625 17.8784 20.8625 17.3296 21.1125 16.729C21.375 16.1285 21.375 15.6211 21.2875 15.5072C21.2 15.3933 21.0125 15.3415 20.7 15.2173Z" fill="#A41C07"/>
</g>
<defs>
<clipPath id="clip0_1_273">
<rect width="30" height="24.8507" fill="white" transform="translate(0 0.731354)"/>
</clipPath>
</defs>
</svg>
